<?xml version="1.0" encoding="UTF-8" standalone="no"?>
<svg
   xmlns:dc="http://purl.org/dc/elements/1.1/"
   xmlns:cc="http://creativecommons.org/ns#"
   xmlns:rdf="http://www.w3.org/1999/02/22-rdf-syntax-ns#"
   xmlns:svg="http://www.w3.org/2000/svg"
   xmlns="http://www.w3.org/2000/svg"
   xmlns:sodipodi="http://sodipodi.sourceforge.net/DTD/sodipodi-0.dtd"
   xmlns:inkscape="http://www.inkscape.org/namespaces/inkscape"
   version="1.1"
   x="0px"
   y="0px"
   viewBox="0 0 100 100"
   enable-background="new 0 0 100 100"
   xml:space="preserve"
   id="svg4993"
   inkscape:version="0.48.4 r9939"
   width="100%"
   height="100%"
   sodipodi:docname="artificial-gravity-area.svg"><metadata
     id="metadata5007"><rdf:RDF><cc:Work
         rdf:about=""><dc:format>image/svg+xml</dc:format><dc:type
           rdf:resource="http://purl.org/dc/dcmitype/StillImage" /></cc:Work></rdf:RDF></metadata><defs
     id="defs5005" /><sodipodi:namedview
     pagecolor="#ffffff"
     bordercolor="#666666"
     borderopacity="1"
     objecttolerance="10"
     gridtolerance="10"
     guidetolerance="10"
     inkscape:pageopacity="0"
     inkscape:pageshadow="2"
     inkscape:window-width="739"
     inkscape:window-height="480"
     id="namedview5003"
     showgrid="false"
     inkscape:zoom="2.36"
     inkscape:cx="50"
     inkscape:cy="50"
     inkscape:window-x="855"
     inkscape:window-y="285"
     inkscape:window-maximized="0"
     inkscape:current-layer="svg4993" /><path
     inkscape:connector-curvature="0"
     id="path4997"
     d="M 85,2 H 15 C 9.5,2 5,6.5 5,12 v 60 h 15 v 7.5 c 0,1.4 1.1,2.5 2.5,2.5 h 15 V 54.5 C 37.5,53.1 36.4,52 35,52 H 27.5 C 26.1,52 25,50.9 25,49.5 v -10 C 25,38.1 26.1,37 27.5,37 H 35 c 1.4,0 2.5,-1.1 2.5,-2.5 V 32 c 0,-7 5.8,-12.7 12.9,-12.5 6.8,0.2 12.1,5.9 12.1,12.8 v 2.2 c 0,1.4 1.1,2.5 2.5,2.5 h 7.5 c 1.4,0 2.5,1.1 2.5,2.5 v 10 C 75,50.9 73.9,52 72.5,52 H 65 c -1.4,0 -2.5,1.1 -2.5,2.5 V 82 h 15 C 78.9,82 80,80.9 80,79.5 V 72 H 95 V 12 C 95,6.5 90.5,2 85,2 z" /><circle
     sodipodi:ry="7.5"
     sodipodi:rx="7.5"
     sodipodi:cy="32"
     sodipodi:cx="50"
     id="circle4999"
     r="7.5"
     cy="32"
     cx="50"
     style="fill:#ae0001;fill-opacity:1" /><path
     inkscape:connector-curvature="0"
     id="path5001"
     d="m 85,82 c 0,2.8 -2.2,5 -5,5 H 20 c -2.8,0 -5,-2.2 -5,-5 V 77 H 5 v 10 c 0,5.5 4.5,10 10,10 h 70 c 5.5,0 10,-4.5 10,-10 V 77 H 85 v 5 z"
     style="fill:#ae0001;fill-opacity:1" /></svg>