<?xml version="1.0" encoding="UTF-8" standalone="no"?>
<svg
   xmlns:dc="http://purl.org/dc/elements/1.1/"
   xmlns:cc="http://creativecommons.org/ns#"
   xmlns:rdf="http://www.w3.org/1999/02/22-rdf-syntax-ns#"
   xmlns:svg="http://www.w3.org/2000/svg"
   xmlns="http://www.w3.org/2000/svg"
   xmlns:sodipodi="http://sodipodi.sourceforge.net/DTD/sodipodi-0.dtd"
   xmlns:inkscape="http://www.inkscape.org/namespaces/inkscape"
   version="1.1"
   x="0px"
   y="0px"
   viewBox="0 0 100 100"
   enable-background="new 0 0 100 100"
   xml:space="preserve"
   id="svg7292"
   inkscape:version="0.48.4 r9939"
   width="100%"
   height="100%"
   sodipodi:docname="coffee.svg"><metadata
     id="metadata7306"><rdf:RDF><cc:Work
         rdf:about=""><dc:format>image/svg+xml</dc:format><dc:type
           rdf:resource="http://purl.org/dc/dcmitype/StillImage" /></cc:Work></rdf:RDF></metadata><defs
     id="defs7304" /><sodipodi:namedview
     pagecolor="#ffffff"
     bordercolor="#666666"
     borderopacity="1"
     objecttolerance="10"
     gridtolerance="10"
     guidetolerance="10"
     inkscape:pageopacity="0"
     inkscape:pageshadow="2"
     inkscape:window-width="739"
     inkscape:window-height="533"
     id="namedview7302"
     showgrid="false"
     inkscape:zoom="2.36"
     inkscape:cx="50"
     inkscape:cy="50"
     inkscape:window-x="855"
     inkscape:window-y="289"
     inkscape:window-maximized="0"
     inkscape:current-layer="svg7292" /><path
     inkscape:connector-curvature="0"
     id="path7296"
     d="M 85,2 H 15 C 9.5,2 5,6.5 5,12 v 75 c 0,5.5 4.5,10 10,10 h 70 c 5.5,0 10,-4.5 10,-10 V 12 C 95,6.5 90.5,2 85,2 z m 0,80 c 0,2.8 -2.2,5 -5,5 H 20 c -2.8,0 -5,-2.2 -5,-5 V 17 c 0,-2.8 2.2,-5 5,-5 h 60 c 2.8,0 5,2.2 5,5 v 65 z"
     style="fill:#ae0001;fill-opacity:1" /><path
     inkscape:connector-curvature="0"
     id="path7298"
     d="m 70,54.5 v -10 C 70,43.1 68.9,42 67.5,42 H 60 v 15 h 7.5 c 1.4,0 2.5,-1.1 2.5,-2.5 z"
     style="fill-opacity:1;fill:#11532f" /><path
     inkscape:connector-curvature="0"
     id="path7300"
     d="m 77.5,17 h -55 C 21.1,17 20,18.1 20,19.5 v 60 c 0,1.4 1.1,2.5 2.5,2.5 h 55 c 1.4,0 2.5,-1.1 2.5,-2.5 v -60 C 80,18.1 78.9,17 77.5,17 z m -2.1,42.5 c 0,1.4 -1.1,2.5 -2.5,2.5 H 27.5 C 26.1,62 25,60.9 25,59.5 V 37 h 50.4 v 22.5 z"
     style="fill-opacity:1;fill:#11532f" /></svg>