<?xml version="1.0" encoding="UTF-8" standalone="no"?>
<svg
   xmlns:dc="http://purl.org/dc/elements/1.1/"
   xmlns:cc="http://creativecommons.org/ns#"
   xmlns:rdf="http://www.w3.org/1999/02/22-rdf-syntax-ns#"
   xmlns:svg="http://www.w3.org/2000/svg"
   xmlns="http://www.w3.org/2000/svg"
   xmlns:sodipodi="http://sodipodi.sourceforge.net/DTD/sodipodi-0.dtd"
   xmlns:inkscape="http://www.inkscape.org/namespaces/inkscape"
   version="1.1"
   x="0px"
   y="0px"
   viewBox="0 0 100 100"
   enable-background="new 0 0 100 100"
   xml:space="preserve"
   id="svg7871"
   inkscape:version="0.48.4 r9939"
   width="100%"
   height="100%"
   sodipodi:docname="computer-terminal.svg"><metadata
     id="metadata7883"><rdf:RDF><cc:Work
         rdf:about=""><dc:format>image/svg+xml</dc:format><dc:type
           rdf:resource="http://purl.org/dc/dcmitype/StillImage" /></cc:Work></rdf:RDF></metadata><defs
     id="defs7881" /><sodipodi:namedview
     pagecolor="#ffffff"
     bordercolor="#666666"
     borderopacity="1"
     objecttolerance="10"
     gridtolerance="10"
     guidetolerance="10"
     inkscape:pageopacity="0"
     inkscape:pageshadow="2"
     inkscape:window-width="739"
     inkscape:window-height="531"
     id="namedview7879"
     showgrid="false"
     inkscape:zoom="2.36"
     inkscape:cx="50"
     inkscape:cy="50"
     inkscape:window-x="835"
     inkscape:window-y="290"
     inkscape:window-maximized="0"
     inkscape:current-layer="svg7871" /><path
     inkscape:connector-curvature="0"
     id="path7875"
     d="M 85,2 H 15 C 9.5,2 5,6.5 5,12 v 75 c 0,5.5 4.5,10 10,10 h 70 c 5.5,0 10,-4.5 10,-10 V 12 C 95,6.5 90.5,2 85,2 z m 0,80 c 0,2.8 -2.2,5 -5,5 H 20 c -2.8,0 -5,-2.2 -5,-5 V 17 c 0,-2.8 2.2,-5 5,-5 h 60 c 2.8,0 5,2.2 5,5 v 65 z"
     style="fill:#ae0001;fill-opacity:1" /><path
     inkscape:connector-curvature="0"
     id="path7877"
     d="m 77.5,17 h -55 C 21.1,17 20,18.1 20,19.5 v 60 c 0,1.4 1.1,2.5 2.5,2.5 h 55 c 1.4,0 2.5,-1.1 2.5,-2.5 v -60 C 80,18.1 78.9,17 77.5,17 z M 35,77 H 27.5 C 26.1,77 25,75.9 25,74.5 V 67 H 35 V 77 z M 35,64.5 H 25 V 57 c 0,-1.4 1.1,-2.5 2.5,-2.5 H 35 v 10 z M 48.3,77 h -10 V 67 h 10 v 10 z m 0,-12.5 h -10 v -10 h 10 v 10 z M 61.7,77 h -10 V 67 h 10 v 10 z m 0,-12.5 h -10 v -10 h 10 v 10 z M 75,74.5 C 75,75.9 73.9,77 72.5,77 H 65 V 67 h 10 v 7.5 z m 0,-10 H 65 v -10 h 7.5 c 1.4,0 2.5,1.1 2.5,2.5 v 7.5 z m 0,-20 c 0,1.4 -1.1,2.5 -2.5,2.5 h -45 C 26.1,47 25,45.9 25,44.5 v -20 C 25,23.1 26.1,22 27.5,22 h 45 c 1.4,0 2.5,1.1 2.5,2.5 v 20 z"
     style="fill:#7b7b7b;fill-opacity:1" /></svg>