<?xml version="1.0" encoding="UTF-8" standalone="no"?>
<svg
   xmlns:dc="http://purl.org/dc/elements/1.1/"
   xmlns:cc="http://creativecommons.org/ns#"
   xmlns:rdf="http://www.w3.org/1999/02/22-rdf-syntax-ns#"
   xmlns:svg="http://www.w3.org/2000/svg"
   xmlns="http://www.w3.org/2000/svg"
   xmlns:sodipodi="http://sodipodi.sourceforge.net/DTD/sodipodi-0.dtd"
   xmlns:inkscape="http://www.inkscape.org/namespaces/inkscape"
   version="1.1"
   x="0px"
   y="0px"
   viewBox="0 0 100 100"
   enable-background="new 0 0 100 100"
   xml:space="preserve"
   id="svg3809"
   inkscape:version="0.91 r13725"
   width="100%"
   height="100%"
   sodipodi:docname="directions_left.svg"><metadata
     id="metadata3821"><rdf:RDF><cc:Work
         rdf:about=""><dc:format>image/svg+xml</dc:format><dc:type
           rdf:resource="http://purl.org/dc/dcmitype/StillImage" /><dc:title></dc:title></cc:Work></rdf:RDF></metadata><defs
     id="defs3819" /><sodipodi:namedview
     pagecolor="#ffffff"
     bordercolor="#666666"
     borderopacity="1"
     objecttolerance="10"
     gridtolerance="10"
     guidetolerance="10"
     inkscape:pageopacity="0"
     inkscape:pageshadow="2"
     inkscape:window-width="739"
     inkscape:window-height="480"
     id="namedview3817"
     showgrid="false"
     inkscape:zoom="2.36"
     inkscape:cx="50"
     inkscape:cy="50"
     inkscape:window-x="839"
     inkscape:window-y="391"
     inkscape:window-maximized="0"
     inkscape:current-layer="svg3809" /><path
     inkscape:connector-curvature="0"
     id="path3813"
     d="m 2.5,14.5 0,70 c 0,5.5 4.5,10 10,10 l 75,0 c 5.5,0 10,-4.5 10,-10 l 0,-70 C 97.5,9 93,4.5 87.5,4.5 l -75,0 C 7,4.5 2.5,9 2.5,14.5 Z m 80,0 c 2.8,0 5,2.2 5,5 l 0,60 c 0,2.8 -2.2,5 -5,5 l -65,0 c -2.8,0 -5,-2.2 -5,-5 l 0,-60 c 0,-2.8 2.2,-5 5,-5 l 65,0 z"
     style="fill:#ae0001;fill-opacity:1" /><polygon
     id="polygon3815"
     points="50,22 20,52 20,72 50,42 80,72 80,52 "
     style="fill:#ae0001;fill-opacity:1"
     transform="matrix(0,-1,1,0,3,97)" /></svg>