<?xml version="1.0" encoding="UTF-8" standalone="no"?>
<svg
   xmlns:dc="http://purl.org/dc/elements/1.1/"
   xmlns:cc="http://creativecommons.org/ns#"
   xmlns:rdf="http://www.w3.org/1999/02/22-rdf-syntax-ns#"
   xmlns:svg="http://www.w3.org/2000/svg"
   xmlns="http://www.w3.org/2000/svg"
   xmlns:sodipodi="http://sodipodi.sourceforge.net/DTD/sodipodi-0.dtd"
   xmlns:inkscape="http://www.inkscape.org/namespaces/inkscape"
   version="1.1"
   x="0px"
   y="0px"
   viewBox="0 0 100 100"
   enable-background="new 0 0 100 100"
   xml:space="preserve"
   id="svg4381"
   inkscape:version="0.48.4 r9939"
   width="100%"
   height="100%"
   sodipodi:docname="exhaust.svg"><metadata
     id="metadata4399"><rdf:RDF><cc:Work
         rdf:about=""><dc:format>image/svg+xml</dc:format><dc:type
           rdf:resource="http://purl.org/dc/dcmitype/StillImage" /></cc:Work></rdf:RDF></metadata><defs
     id="defs4397" /><sodipodi:namedview
     pagecolor="#ffffff"
     bordercolor="#666666"
     borderopacity="1"
     objecttolerance="10"
     gridtolerance="10"
     guidetolerance="10"
     inkscape:pageopacity="0"
     inkscape:pageshadow="2"
     inkscape:window-width="739"
     inkscape:window-height="480"
     id="namedview4395"
     showgrid="false"
     inkscape:zoom="2.36"
     inkscape:cx="50"
     inkscape:cy="50"
     inkscape:window-x="855"
     inkscape:window-y="297"
     inkscape:window-maximized="0"
     inkscape:current-layer="svg4381" /><path
     inkscape:connector-curvature="0"
     id="path4385"
     d="M 80,19.5 C 80,18.1 78.9,17 77.5,17 H 70 V 67 L 95,93.2 V 75.8 L 80,64.5 v -45 z"
     style="fill:#f7a400;fill-opacity:1" /><polygon
     id="polygon4387"
     points="52.5,97 90,97 65,69.5 65,17 52.5,17 "
     style="fill:#f7a400;fill-opacity:1" /><path
     inkscape:connector-curvature="0"
     id="path4389"
     d="M 85,2 H 15 C 9.5,2 5,6.5 5,12 V 68.2 L 15,62 V 17 c 0,-2.8 2.2,-5 5,-5 h 60 c 2.8,0 5,2.2 5,5 v 45 l 10,6.2 V 12 C 95,6.5 90.5,2 85,2 z"
     style="fill:#ae0001;fill-opacity:1" /><path
     inkscape:connector-curvature="0"
     id="path4391"
     d="M 30,17 H 22.5 C 21.1,17 20,18.1 20,19.5 v 45 L 5,75.8 V 93.3 L 30,67 V 17 z"
     style="fill:#f7a400;fill-opacity:1" /><polygon
     id="polygon4393"
     points="47.5,97 47.5,17 35,17 35,69.5 10,97 "
     style="fill:#f7a400;fill-opacity:1" /></svg>