<?xml version="1.0" encoding="UTF-8" standalone="no"?>
<svg
   xmlns:dc="http://purl.org/dc/elements/1.1/"
   xmlns:cc="http://creativecommons.org/ns#"
   xmlns:rdf="http://www.w3.org/1999/02/22-rdf-syntax-ns#"
   xmlns:svg="http://www.w3.org/2000/svg"
   xmlns="http://www.w3.org/2000/svg"
   xmlns:sodipodi="http://sodipodi.sourceforge.net/DTD/sodipodi-0.dtd"
   xmlns:inkscape="http://www.inkscape.org/namespaces/inkscape"
   version="1.1"
   x="0px"
   y="0px"
   viewBox="0 0 100 100"
   enable-background="new 0 0 100 100"
   xml:space="preserve"
   id="svg7808"
   inkscape:version="0.48.4 r9939"
   width="100%"
   height="100%"
   sodipodi:docname="laser.svg"><metadata
     id="metadata7832"><rdf:RDF><cc:Work
         rdf:about=""><dc:format>image/svg+xml</dc:format><dc:type
           rdf:resource="http://purl.org/dc/dcmitype/StillImage" /></cc:Work></rdf:RDF></metadata><defs
     id="defs7830" /><sodipodi:namedview
     pagecolor="#ffffff"
     bordercolor="#666666"
     borderopacity="1"
     objecttolerance="10"
     gridtolerance="10"
     guidetolerance="10"
     inkscape:pageopacity="0"
     inkscape:pageshadow="2"
     inkscape:window-width="739"
     inkscape:window-height="480"
     id="namedview7828"
     showgrid="false"
     inkscape:zoom="2.36"
     inkscape:cx="50"
     inkscape:cy="50"
     inkscape:window-x="791"
     inkscape:window-y="285"
     inkscape:window-maximized="0"
     inkscape:current-layer="svg7808" /><path
     inkscape:connector-curvature="0"
     id="path7812"
     d="M 5,12 V 47 H 15 V 17 c 0,-2.8 2.2,-5 5,-5 H 47.5 V 2 H 15 C 9.5,2 5,6.5 5,12 z"
     style="fill:#ae0001;fill-opacity:1" /><path
     inkscape:connector-curvature="0"
     id="path7814"
     d="M 15,82 V 52 H 5 v 35 c 0,5.5 4.5,10 10,10 H 47.5 V 87 H 20 c -2.8,0 -5,-2.2 -5,-5 z"
     style="fill:#ae0001;fill-opacity:1" /><path
     inkscape:connector-curvature="0"
     id="path7816"
     d="M 85,2 H 52.5 V 12 H 80 c 2.8,0 5,2.2 5,5 V 47 H 95 V 12 C 95,6.5 90.5,2 85,2 z"
     style="fill:#ae0001;fill-opacity:1" /><path
     inkscape:connector-curvature="0"
     id="path7818"
     d="m 85,82 c 0,2.8 -2.2,5 -5,5 H 52.5 V 97 H 85 c 5.5,0 10,-4.5 10,-10 V 52 H 85 v 30 z"
     style="fill:#ae0001;fill-opacity:1" /><path
     inkscape:connector-curvature="0"
     id="path7820"
     d="M 80,47 V 19.5 C 80,18.1 78.9,17 77.5,17 h -25 v 15 l 15,15 H 80 z"
     style="fill:#7b7b7b;fill-opacity:1" /><path
     inkscape:connector-curvature="0"
     id="path7822"
     d="M 20,19.5 V 47 h 12.5 l 15,-15 V 17 h -25 C 21.1,17 20,18.1 20,19.5 z"
     style="fill:#7b7b7b;fill-opacity:1" /><path
     inkscape:connector-curvature="0"
     id="path7824"
     d="m 20,52 v 27.5 c 0,1.4 1.1,2.5 2.5,2.5 h 25 V 67 L 32.5,52 H 20 z"
     style="fill:#7b7b7b;fill-opacity:1" /><path
     inkscape:connector-curvature="0"
     id="path7826"
     d="M 80,79.5 V 52 H 67.5 l -15,15 v 15 h 25 c 1.4,0 2.5,-1.1 2.5,-2.5 z"
     style="fill:#7b7b7b;fill-opacity:1" /></svg>