<?xml version="1.0" encoding="UTF-8" standalone="no"?>
<svg
   xmlns:dc="http://purl.org/dc/elements/1.1/"
   xmlns:cc="http://creativecommons.org/ns#"
   xmlns:rdf="http://www.w3.org/1999/02/22-rdf-syntax-ns#"
   xmlns:svg="http://www.w3.org/2000/svg"
   xmlns="http://www.w3.org/2000/svg"
   xmlns:sodipodi="http://sodipodi.sourceforge.net/DTD/sodipodi-0.dtd"
   xmlns:inkscape="http://www.inkscape.org/namespaces/inkscape"
   version="1.1"
   x="0px"
   y="0px"
   viewBox="0 0 100 100"
   enable-background="new 0 0 100 100"
   xml:space="preserve"
   id="svg8402"
   inkscape:version="0.48.4 r9939"
   width="100%"
   height="100%"
   sodipodi:docname="life-support-system.svg"><metadata
     id="metadata8424"><rdf:RDF><cc:Work
         rdf:about=""><dc:format>image/svg+xml</dc:format><dc:type
           rdf:resource="http://purl.org/dc/dcmitype/StillImage" /></cc:Work></rdf:RDF></metadata><defs
     id="defs8422" /><sodipodi:namedview
     pagecolor="#ffffff"
     bordercolor="#666666"
     borderopacity="1"
     objecttolerance="10"
     gridtolerance="10"
     guidetolerance="10"
     inkscape:pageopacity="0"
     inkscape:pageshadow="2"
     inkscape:window-width="739"
     inkscape:window-height="480"
     id="namedview8420"
     showgrid="false"
     inkscape:zoom="2.36"
     inkscape:cx="50"
     inkscape:cy="50"
     inkscape:window-x="814"
     inkscape:window-y="348"
     inkscape:window-maximized="0"
     inkscape:current-layer="svg8402" /><path
     inkscape:connector-curvature="0"
     id="path8406"
     d="M 85,2 H 15 C 9.5,2 5,6.5 5,12 v 75 c 0,5.5 4.5,10 10,10 h 70 c 5.5,0 10,-4.5 10,-10 V 12 C 95,6.5 90.5,2 85,2 z m 0,80 c 0,2.8 -2.2,5 -5,5 H 20 c -2.8,0 -5,-2.2 -5,-5 V 17 c 0,-2.8 2.2,-5 5,-5 h 60 c 2.8,0 5,2.2 5,5 v 65 z"
     style="fill:#ae0001;fill-opacity:1" /><path
     inkscape:connector-curvature="0"
     id="path8408"
     d="m 35,42 h -5 c -2.8,0 -5,-2.2 -5,-5 V 17 H 22.5 C 21.1,17 20,18.1 20,19.5 V 47 h 15 v -5 z"
     style="fill:#7b7b7b;fill-opacity:1" /><polygon
     id="polygon8410"
     points="65,37 70,37 70,17 30,17 30,37 35,37 35,32 65,32 "
     style="fill:#7b7b7b;fill-opacity:1" /><path
     inkscape:connector-curvature="0"
     id="path8412"
     d="M 77.5,17 H 75 v 20 c 0,2.8 -2.2,5 -5,5 h -5 v 5 H 80 V 19.5 C 80,18.1 78.9,17 77.5,17 z"
     style="fill:#7b7b7b;fill-opacity:1" /><polygon
     id="polygon8414"
     points="35,62 30,62 30,82 70,82 70,62 65,62 65,67 35,67 "
     style="fill:#7b7b7b;fill-opacity:1" /><path
     inkscape:connector-curvature="0"
     id="path8416"
     d="M 35,57 V 52 H 20 v 27.5 c 0,1.4 1.1,2.5 2.5,2.5 H 25 V 62 c 0,-2.8 2.2,-5 5,-5 h 5 z"
     style="fill:#7b7b7b;fill-opacity:1" /><path
     inkscape:connector-curvature="0"
     id="path8418"
     d="m 65,57 h 5 c 2.8,0 5,2.2 5,5 v 20 h 2.5 C 78.9,82 80,80.9 80,79.5 V 52 H 65 v 5 z"
     style="fill:#7b7b7b;fill-opacity:1" /></svg>