<?xml version="1.0" encoding="UTF-8" standalone="no"?>
<svg
   xmlns:dc="http://purl.org/dc/elements/1.1/"
   xmlns:cc="http://creativecommons.org/ns#"
   xmlns:rdf="http://www.w3.org/1999/02/22-rdf-syntax-ns#"
   xmlns:svg="http://www.w3.org/2000/svg"
   xmlns="http://www.w3.org/2000/svg"
   xmlns:sodipodi="http://sodipodi.sourceforge.net/DTD/sodipodi-0.dtd"
   xmlns:inkscape="http://www.inkscape.org/namespaces/inkscape"
   version="1.1"
   x="0px"
   y="0px"
   viewBox="0 0 100 100"
   enable-background="new 0 0 100 100"
   xml:space="preserve"
   id="svg10282"
   inkscape:version="0.48.4 r9939"
   width="100%"
   height="100%"
   sodipodi:docname="non-pressurized-area-beyond.svg"><metadata
     id="metadata10298"><rdf:RDF><cc:Work
         rdf:about=""><dc:format>image/svg+xml</dc:format><dc:type
           rdf:resource="http://purl.org/dc/dcmitype/StillImage" /></cc:Work></rdf:RDF></metadata><defs
     id="defs10296" /><sodipodi:namedview
     pagecolor="#ffffff"
     bordercolor="#666666"
     borderopacity="1"
     objecttolerance="10"
     gridtolerance="10"
     guidetolerance="10"
     inkscape:pageopacity="0"
     inkscape:pageshadow="2"
     inkscape:window-width="739"
     inkscape:window-height="480"
     id="namedview10294"
     showgrid="false"
     inkscape:zoom="2.36"
     inkscape:cx="50"
     inkscape:cy="50"
     inkscape:window-x="854"
     inkscape:window-y="282"
     inkscape:window-maximized="0"
     inkscape:current-layer="svg10282" /><path
     inkscape:connector-curvature="0"
     id="path10286"
     d="m 20,79.5 c 0,1.4 1.1,2.5 2.5,2.5 h 55 C 78.9,82 80,80.9 80,79.5 V 17 H 95 V 12 C 95,6.5 90.5,2 85,2 H 15 C 9.5,2 5,6.5 5,12 v 5 h 15 v 62.5 z" /><path
     inkscape:connector-curvature="0"
     id="path10288"
     d="M 15,82 V 22 H 5 v 65 c 0,5.5 4.5,10 10,10 H 25 V 87 h -5 c -2.8,0 -5,-2.2 -5,-5 z"
     style="fill:#ae0001;fill-opacity:1" /><rect
     id="rect10290"
     height="10"
     width="40"
     y="87"
     x="30"
     style="fill:#ae0001;fill-opacity:1" /><path
     inkscape:connector-curvature="0"
     id="path10292"
     d="m 85,82 c 0,2.8 -2.2,5 -5,5 h -5 v 10 h 10 c 5.5,0 10,-4.5 10,-10 V 22 H 85 v 60 z"
     style="fill:#ae0001;fill-opacity:1" /></svg>