<?xml version="1.0" encoding="UTF-8" standalone="no"?>
<svg
   xmlns:dc="http://purl.org/dc/elements/1.1/"
   xmlns:cc="http://creativecommons.org/ns#"
   xmlns:rdf="http://www.w3.org/1999/02/22-rdf-syntax-ns#"
   xmlns:svg="http://www.w3.org/2000/svg"
   xmlns="http://www.w3.org/2000/svg"
   xmlns:sodipodi="http://sodipodi.sourceforge.net/DTD/sodipodi-0.dtd"
   xmlns:inkscape="http://www.inkscape.org/namespaces/inkscape"
   version="1.1"
   x="0px"
   y="0px"
   viewBox="0 0 100 100"
   enable-background="new 0 0 100 100"
   xml:space="preserve"
   id="svg13708"
   inkscape:version="0.48.4 r9939"
   width="100%"
   height="100%"
   sodipodi:docname="radiation-hazard.svg"><metadata
     id="metadata13720"><rdf:RDF><cc:Work
         rdf:about=""><dc:format>image/svg+xml</dc:format><dc:type
           rdf:resource="http://purl.org/dc/dcmitype/StillImage" /></cc:Work></rdf:RDF></metadata><defs
     id="defs13718" /><sodipodi:namedview
     pagecolor="#ffffff"
     bordercolor="#666666"
     borderopacity="1"
     objecttolerance="10"
     gridtolerance="10"
     guidetolerance="10"
     inkscape:pageopacity="0"
     inkscape:pageshadow="2"
     inkscape:window-width="739"
     inkscape:window-height="480"
     id="namedview13716"
     showgrid="false"
     inkscape:zoom="2.36"
     inkscape:cx="50"
     inkscape:cy="50"
     inkscape:window-x="855"
     inkscape:window-y="316"
     inkscape:window-maximized="0"
     inkscape:current-layer="svg13708" /><rect
     style="fill:#000000;fill-opacity:1;stroke:none"
     id="rect14250"
     width="56.35593"
     height="19.491526"
     x="22.457626"
     y="58.898304" /><path
     inkscape:connector-curvature="0"
     id="path13712"
     d="M 85,2 H 15 C 9.5,2 5,6.5 5,12 v 75 c 0,5.5 4.5,10 10,10 h 70 c 5.5,0 10,-4.5 10,-10 V 12 C 95,6.5 90.5,2 85,2 z m 0,80 c 0,2.8 -2.2,5 -5,5 H 20 c -2.8,0 -5,-2.2 -5,-5 V 17 c 0,-2.8 2.2,-5 5,-5 h 60 c 2.8,0 5,2.2 5,5 v 65 z"
     style="fill:#ae0001;fill-opacity:1" /><path
     inkscape:connector-curvature="0"
     id="path13714"
     d="m 77.5,17 h -55 C 21.1,17 20,18.1 20,19.5 v 60 c 0,1.4 1.1,2.5 2.5,2.5 h 55 c 1.4,0 2.5,-1.1 2.5,-2.5 v -60 C 80,18.1 78.9,17 77.5,17 z M 60,74.5 H 25 v -10 h 35 v 10 z M 70,77 c -4.1,0 -7.5,-3.4 -7.5,-7.5 0,-4.1 3.4,-7.5 7.5,-7.5 4.1,0 7.5,3.4 7.5,7.5 0,4.1 -3.4,7.5 -7.5,7.5 z"
     style="fill:#f7a400;fill-opacity:1" /></svg>