<?xml version="1.0" encoding="UTF-8" standalone="no"?>
<svg
   xmlns:dc="http://purl.org/dc/elements/1.1/"
   xmlns:cc="http://creativecommons.org/ns#"
   xmlns:rdf="http://www.w3.org/1999/02/22-rdf-syntax-ns#"
   xmlns:svg="http://www.w3.org/2000/svg"
   xmlns="http://www.w3.org/2000/svg"
   xmlns:sodipodi="http://sodipodi.sourceforge.net/DTD/sodipodi-0.dtd"
   xmlns:inkscape="http://www.inkscape.org/namespaces/inkscape"
   version="1.1"
   x="0px"
   y="0px"
   viewBox="0 0 100 100"
   enable-background="new 0 0 100 100"
   xml:space="preserve"
   id="svg14294"
   inkscape:version="0.48.4 r9939"
   width="100%"
   height="100%"
   sodipodi:docname="radiation-shield.svg"><metadata
     id="metadata14306"><rdf:RDF><cc:Work
         rdf:about=""><dc:format>image/svg+xml</dc:format><dc:type
           rdf:resource="http://purl.org/dc/dcmitype/StillImage" /></cc:Work></rdf:RDF></metadata><defs
     id="defs14304" /><sodipodi:namedview
     pagecolor="#ffffff"
     bordercolor="#666666"
     borderopacity="1"
     objecttolerance="10"
     gridtolerance="10"
     guidetolerance="10"
     inkscape:pageopacity="0"
     inkscape:pageshadow="2"
     inkscape:window-width="739"
     inkscape:window-height="480"
     id="namedview14302"
     showgrid="false"
     inkscape:zoom="2.36"
     inkscape:cx="3.1779661"
     inkscape:cy="50"
     inkscape:window-x="855"
     inkscape:window-y="352"
     inkscape:window-maximized="0"
     inkscape:current-layer="svg14294" /><path
     inkscape:connector-curvature="0"
     id="path14298"
     d="M 85,2 H 15 C 9.5,2 5,6.5 5,12 v 75 c 0,5.5 4.5,10 10,10 h 70 c 5.5,0 10,-4.5 10,-10 V 12 C 95,6.5 90.5,2 85,2 z M 70,74.5 C 70,75.9 68.9,77 67.5,77 H 55 V 47 H 45 V 77 H 32.5 C 31.1,77 30,75.9 30,74.5 v -50 C 30,23.1 31.1,22 32.5,22 h 35 c 1.4,0 2.5,1.1 2.5,2.5 v 50 z"
     style="fill:#ae0001;fill-opacity:1" /><circle
     sodipodi:ry="7.5"
     sodipodi:rx="7.5"
     sodipodi:cy="34.5"
     sodipodi:cx="50"
     id="circle14300"
     r="7.5"
     cy="34.5"
     cx="50"
     style="fill:#ae0001;fill-opacity:1" /></svg>